#!OML:ASF H:\Terrain\Patient Classification 1\PLAYGROUND\JustinFriday\JustinFriday.ASF
:FULLY-SPECIFIED
:DEGREES
2046
root 9.47935 17.0823 -12.9755 15.8498 -73.0644 -21.4066
lowerback 11.8222 7.05543 3.02929
upperback 2.48629 9.69414 1.13278
thorax -3.64386 4.74223 -1.88972
lowerneck -1.8645 -7.42974 -7.95065
upperneck -5.82964 -9.50975 15.9969
head -0.189507 -4.88199 5.9924
rclavicle -6.85807e-014 -7.55382e-015
rhumerus -33.997 -22.0909 -68.6428
rradius 44.3087
rwrist -11.3688
rhand -11.3042 -29.5842
rfingers 7.12502
rthumb 14.7275 -779.041
lclavicle -6.85807e-014 -7.55382e-015
lhumerus -62.9242 27.5629 52.323
lradius 16.0987
lwrist -14.7414
lhand 3.48803 2.49178
lfingers 7.12502
lthumb 28.9268 30.2681
rfemur -15.0165 3.32411 21.862
rtibia 77.8374
rfoot 1.12006 -11.9855
rtoes -1.68489
lfemur -4.85098 -9.37628 -15.8699
ltibia 45.6333
lfoot -25.1824 -18.9836
ltoes 6.68881
2047
root 9.4049 17.1252 -12.998 13.1288 -72.3061 -18.4849
lowerback 11.813 6.98856 2.60406
upperback 2.44524 9.548 0.904416
thorax -3.71831 4.67291 -1.88054
lowerneck -2.08665 -7.5468 -7.98506
upperneck -5.81579 -9.65899 16.0083
head -0.128148 -4.94639 5.98521
rclavicle 5.69021e-014 -4.77083e-015
rhumerus -34.4337 -22.2473 -68.5086
rradius 44.136
rwrist -11.4416
rhand -10.5912 -30.2885
rfingers 7.12502
rthumb 15.4142 -779.694
lclavicle 5.69021e-014 -4.77083e-015
lhumerus -63.0508 27.076 51.8801
lradius 16.6613
lwrist -14.6197
lhand 3.56826 3.25459
lfingers 7.12502
lthumb 29.0034 31.0178
rfemur -15.7434 2.76982 20.9061
rtibia 77.4125
rfoot 0.154337 -12.3737
rtoes -0.0404725
lfemur -4.4848 -10.4203 -16.4991
ltibia 44.8525
lfoot -24.3318 -19.5619
ltoes 8.55462
2048
root 9.38262 17.1594 -12.9701 5.72691 -72.0024 -9.64906
lowerback 11.3104 7.04912 0.942392
upperback 2.18564 9.39003 -0.133925
thorax -3.81138 4.61196 -1.98958
lowerneck -2.31072 -7.68954 -7.86125
upperneck -5.8532 -9.84058 16.0768
head -0.0820743 -5.03304 5.96936
rclavicle -1.32291e-013 -2.38542e-015
rhumerus -34.7612 -22.2537 -68.5141
rradius 43.9409
rwrist -12.2358
rhand -11.0171 -31.0809
rfingers 7.12502
rthumb 15.004 -780.517
lclavicle -1.32291e-013 -2.38542e-015
lhumerus -63.0615 26.9347 50.9779
lradius 16.856
lwrist -15.1943
lhand 3.6938 3.5261
lfingers 7.12502
lthumb 29.1233 31.2686
rfemur -17.9834 2.12929 17.3684
rtibia 77.2996
rfoot -0.802979 -12.1792
rtoes 1.62096
lfemur -5.23278 -11.1638 -19.2881
ltibia 43.9691
lfoot -23.5301 -19.2424
ltoes 7.97509
2049
root 9.27796 17.1995 -13.0477 8.50956 -70.8932 -13.048
lowerback 11.6769 6.99119 1.34895
upperback 2.21668 9.39368 0.518761
thorax -4.02545 4.60474 -1.5898
lowerneck -2.05092 -7.81115 -7.94474
upperneck -6.16585 -9.98183 16.1032
head -0.192464 -5.12068 6.00453
rclavicle -3.8763e-014 -7.95139e-016
rhumerus -35.1845 -22.0483 -68.2348
rradius 43.6326
rwrist -12.3668
rhand -10.5506 -31.7355
rfingers 7.12502
rthumb 15.4534 -781.138
lclavicle -3.8763e-014 -7.95139e-016
lhumerus -62.9426 26.6998 50.4402
lradius 16.6995
lwrist -15.4741
lhand 2.90374 3.73317
lfingers 7.12502
lthumb 28.3686 31.6038
rfemur -17.9656 2.2652 19.1321
rtibia 76.5302
rfoot -1.99567 -13.504
rtoes 2.01989
lfemur -4.3283 -11.2345 -17.4493
ltibia 43.1988
lfoot -24.0422 -19.53
ltoes 4.36403
